Coordinates
version=1
nRows=13
nColumns=40
inDegrees=yes

Units are S.I. units (second, meters, Newtons, ...)
If the header above contains a line with 'inDegrees', this indicates whether rotational values are in degrees (yes) or radians (no).

endheader
time	pelvis_tilt	pelvis_list	pelvis_rotation	pelvis_tx	pelvis_ty	pelvis_tz	hip_flexion_r	hip_adduction_r	hip_rotation_r	knee_angle_r	knee_angle_r_beta	ankle_angle_r	subtalar_angle_r	mtp_angle_r	hip_flexion_l	hip_adduction_l	hip_rotation_l	knee_angle_l	knee_angle_l_beta	ankle_angle_l	subtalar_angle_l	mtp_angle_l	lumbar_extension	lumbar_bending	lumbar_rotation	arm_flex_r	arm_add_r	arm_rot_r	elbow_flex_r	pro_sup_r	wrist_flex_r	wrist_dev_r	arm_flex_l	arm_add_l	arm_rot_l	elbow_flex_l	pro_sup_l	wrist_flex_l	wrist_dev_l
      9.97500000	     21.33567912	      3.77699315	   -172.15577152	      0.37683648	      0.83148458	     -0.60043334	     47.43472068	    -14.61449547	    -15.41081387	     26.29864441	      0.45899793	      1.48383028	      0.00000000	      0.00000000	     49.98820194	    -10.78773791	     -3.73212896	     21.51087827	      0.37543565	     -4.53821329	      0.00000000	      0.00000000	    -28.61176833	      0.49529292	      0.44645484	     27.54894585	    -16.73349240	     24.98443323	     27.74596128	     81.53471498	      0.00000000	      0.00000000	     38.33539173	     -9.06483145	     38.18544919	     14.44998147	     57.93242436	      0.00000000	      0.00000000
      9.98000000	     21.59028079	      3.80580730	   -172.12880517	      0.37783557	      0.83085865	     -0.60044793	     47.74603066	    -14.64480417	    -15.37481163	     26.22169122	      0.45765485	      1.35958074	      0.00000000	      0.00000000	     50.34513740	    -10.72983442	     -3.63113342	     21.50766245	      0.37537952	     -4.66309907	      0.00000000	      0.00000000	    -28.62726731	      0.51835724	      0.40501229	     27.82170085	    -16.56701223	     24.66923847	     27.54689613	     81.25097755	      0.00000000	      0.00000000	     38.61915849	     -8.87566864	     37.81318689	     14.17435244	     57.39046899	      0.00000000	      0.00000000
      9.98500000	     21.84052613	      3.86615544	   -172.16006948	      0.37880369	      0.83020024	     -0.60056182	     48.11764152	    -14.63298372	    -15.37777742	     26.27332727	      0.45855607	      1.28272412	      0.00000000	      0.00000000	     50.70682649	    -10.76080189	     -3.60379218	     21.52187420	      0.37562757	     -4.77472304	      0.00000000	      0.00000000	    -28.64646534	      0.54672084	      0.45612282	     28.04262925	    -16.48696193	     24.37151397	     27.47987922	     80.94723570	      0.00000000	      0.00000000	     38.85408565	     -8.75667739	     37.45102144	     14.10988056	     56.86175246	      0.00000000	      0.00000000
      9.99000000	     22.18070532	      3.39363817	   -172.71122024	      0.37969277	      0.82949231	     -0.60166984	     48.81816763	    -14.56981628	    -14.32884478	     26.39608443	      0.46069858	      1.25170271	      0.00000000	      0.00000000	     50.86614677	    -10.85413472	     -4.52182029	     21.50498272	      0.37533275	     -4.80552948	      0.00000000	      0.00000000	    -28.64382237	     -0.24946681	      0.66728827	     28.38225150	    -16.50337556	     24.86738716	     27.39963862	     82.05943203	      0.00000000	      0.00000000	     39.07289526	     -9.13109708	     38.38645227	     14.28785026	     57.65010268	      0.00000000	      0.00000000
      9.99500000	     22.48682375	      3.59361773	   -172.63307475	      0.38071761	      0.82868698	     -0.60156314	     49.17921429	    -14.53871915	    -14.51642060	     26.38402383	      0.46048809	      1.14356281	      0.00000000	      0.00000000	     51.38872132	    -10.88763666	     -4.27449633	     21.58335546	      0.37670062	     -4.91426846	      0.00000000	      0.00000000	    -28.57838578	     -0.02591280	      0.68305831	     28.57069960	    -16.46364253	     24.54063146	     27.41536897	     81.79782620	      0.00000000	      0.00000000	     39.30567023	     -8.93608954	     38.02390881	     14.12933174	     57.14057821	      0.00000000	      0.00000000
     10.00000000	     22.75741450	      3.78656051	   -172.65230147	      0.38167035	      0.82793117	     -0.60165164	     49.56385086	    -14.46047774	    -14.72864811	     26.47240218	      0.46203058	      1.06853665	      0.00000000	      0.00000000	     51.83303907	    -11.00300934	     -4.10332394	     21.62220838	      0.37737873	     -5.00019500	      0.00000000	      0.00000000	    -28.54748495	      0.14054890	      0.82788771	     28.69532322	    -16.49890292	     24.21721526	     27.46570263	     81.66135654	      0.00000000	      0.00000000	     39.50932781	     -8.77501479	     37.62124078	     14.13705325	     56.63957642	      0.00000000	      0.00000000
     10.00500000	     23.02432004	      3.83814651	   -172.63704229	      0.38271854	      0.82728026	     -0.60168189	     49.87571716	    -14.44485496	    -14.62939060	     26.35209623	      0.45993084	      0.91045168	      0.00000000	      0.00000000	     52.22712562	    -10.96925476	     -3.98076454	     21.65022926	      0.37786778	     -5.12952707	      0.00000000	      0.00000000	    -28.55371110	      0.17974358	      0.76283651	     29.01669220	    -16.35167147	     24.08331453	     27.27123852	     81.47728878	      0.00000000	      0.00000000	     39.80986926	     -8.67918853	     37.49427496	     13.88359378	     56.18544458	      0.00000000	      0.00000000
     10.01000000	     23.30906524	      3.83796125	   -172.71409942	      0.38365956	      0.82657448	     -0.60184548	     50.27856985	    -14.43760975	    -14.50592266	     26.37897000	      0.46039988	      0.83517057	      0.00000000	      0.00000000	     52.58534741	    -10.98955716	     -4.06819392	     21.63885450	      0.37766926	     -5.20332018	      0.00000000	      0.00000000	    -28.53292105	      0.12685742	      0.81116760	     29.28171674	    -16.32701931	     23.98159419	     27.20559555	     81.68629016	      0.00000000	      0.00000000	     40.07667932	     -8.60792208	     37.43287805	     13.86851260	     55.91413183	      0.00000000	      0.00000000
     10.01500000	     23.40471474	      3.95875148	   -172.72707322	      0.38447131	      0.82620438	     -0.60189592	     50.39754134	    -14.35672074	    -14.62737362	     26.29869414	      0.45899880	      0.71420849	      0.00000000	      0.00000000	     52.82205641	    -11.07341596	     -4.01521279	     21.70949160	      0.37890211	     -5.24327522	      0.00000000	      0.00000000	    -28.72525490	      0.23214050	      0.88120527	     29.57109599	    -16.23067284	     23.90004878	     27.08817061	     80.42960495	      0.00000000	      0.00000000	     40.40079914	     -8.44700927	     37.37461111	     13.54780465	     55.23899709	      0.00000000	      0.00000000
     10.02000000	     23.71776674	      3.99289543	   -172.82465507	      0.38540112	      0.82540577	     -0.60215606	     50.86113640	    -14.29670981	    -14.52970199	     26.35661490	      0.46000971	      0.60586271	      0.00000000	      0.00000000	     53.21357107	    -11.13363024	     -4.01987974	     21.69703172	      0.37868464	     -5.37525776	      0.00000000	      0.00000000	    -28.66511771	      0.18858987	      1.00350381	     29.73369503	    -16.27755846	     23.78331664	     27.13970666	     81.00642373	      0.00000000	      0.00000000	     40.62376800	     -8.38957494	     37.21614412	     13.65753937	     55.03532243	      0.00000000	      0.00000000
     10.02500000	     24.08485307	      3.99159153	   -172.89838461	      0.38641178	      0.82453663	     -0.60231470	     51.34361844	    -14.27554924	    -14.35762310	     26.33014382	      0.45954770	      0.49724501	      0.00000000	      0.00000000	     53.66147033	    -11.11990049	     -4.00669732	     21.68905049	      0.37854534	     -5.48163194	      0.00000000	      0.00000000	    -28.55433823	      0.12901995	      1.00156149	     29.99358272	    -16.22342852	     23.77815992	     27.07501319	     81.18288304	      0.00000000	      0.00000000	     40.79699899	     -8.41656827	     37.20777810	     13.70947540	     54.77502566	      0.00000000	      0.00000000
     10.03000000	     24.44640690	      3.62733638	   -173.51266380	      0.38733013	      0.82374517	     -0.60363402	     52.07582772	    -14.05173187	    -13.47858137	     26.46409866	      0.46188566	      0.38028541	      0.00000000	      0.00000000	     53.88027135	    -11.38380646	     -4.81804008	     21.67406783	      0.37828385	     -5.52591455	      0.00000000	      0.00000000	    -28.49553448	     -0.60932818	      1.30744243	     30.40120398	    -16.43100957	     25.13406393	     27.06131371	     82.01301199	      0.00000000	      0.00000000	     40.96586858	     -9.07373186	     39.06656692	     14.31315443	     55.64659427	      0.00000000	      0.00000000
     10.03500000	     24.65518079	      3.84467246	   -173.26190575	      0.38777007	      0.82287537	     -0.60328041	     52.34407997	    -14.28252553	    -14.30676971	     26.75124897	      0.46689737	      0.70930310	      0.00000000	      0.00000000	     54.38953158	    -11.34094478	     -4.68394051	     21.96260904	      0.38331984	     -5.17976120	      0.00000000	      0.00000000	    -28.50537599	     -0.27785192	      1.08600705	     30.11742286	    -16.53874822	     24.65982534	     28.04111884	     80.43628634	      0.00000000	      0.00000000	     40.70597916	     -9.40828613	     38.36359773	     15.25433624	     55.04089219	      0.00000000	      0.00000000
